<svg width="40" height="40" viewBox="0 0 40 40" fill="none" xmlns="http://www.w3.org/2000/svg">
<rect width="40" height="40" fill="white"/>
<path fill-rule="evenodd" clip-rule="evenodd" d="M36.6721 10.1117C36.9509 10.5589 37 10.8336 37 11.4208V26.7492C37 28.072 36.0714 29.6804 34.9258 30.3418L21.651 38.006C21.1893 38.2726 20.902 38.4172 20.4006 38.4172C19.8993 38.4172 19.612 38.2725 19.1504 38.006L5.87561 30.3418C4.73007 29.6804 3.80142 28.0719 3.80142 26.7492L3.80142 11.4207C3.80142 10.8484 3.82427 10.5802 4.1081 10.1329C4.37002 9.72013 4.66894 9.50263 5.11863 9.25339L18.3635 2.15183C19.8676 1.36147 20.9453 1.36149 22.4264 2.15183L35.6713 9.25339C36.1111 9.49718 36.3998 9.6747 36.6721 10.1117ZM19.5572 17.884C20.0757 18.1826 20.714 18.1822 21.2322 17.883L33.4596 10.822C33.6392 10.7022 33.759 10.5226 33.5195 10.4029L21.2079 3.5843C20.7022 3.30421 20.0878 3.30443 19.5823 3.58491L7.51622 10.1154C7.07743 10.3348 7.09708 10.8134 7.51622 10.993L19.5572 17.884ZM22.2802 19.6785C21.7624 19.9782 21.4436 20.5312 21.4436 21.1295V35.2517C21.4436 35.384 21.5441 35.6708 21.8435 35.4912L34.0868 28.4306C34.6059 28.1312 34.9258 27.5775 34.9258 26.9782V12.8578C34.9258 12.6183 34.8368 12.4387 34.4775 12.6183L22.2802 19.6785Z" fill="#333333"/>
<path d="M24.5184 20.6541L27.7466 18.7902L28.3032 26.9205L28.3032 28.5594L28.6372 28.3666L28.6372 26.7277L29.1938 17.9547L32.4221 16.0909L32.4221 27.3383L30.7523 28.3023L30.7523 20.7826L30.9193 18.1154L30.5853 18.3082L29.8617 28.8165L27.1065 30.4072L26.3551 20.7505L26.0212 20.9433L26.1882 23.4177L26.1882 30.9374L24.5184 31.9015L24.5184 20.6541Z" fill="#333333"/>
<path d="M19.4277 13.241L16.0778 11.307L13.4881 12.2496L11.5457 11.1282L23.6289 6.91673L27.2392 8.81225L19.7373 15.8576L17.795 14.7362L19.4277 13.241ZM18.2454 10.5106L20.7929 11.9814L24.6917 8.41407L24.4383 8.2678L18.2454 10.5106Z" fill="#333333"/>
</svg>
