<svg width="40" height="40" viewBox="0 0 40 40" fill="none" xmlns="http://www.w3.org/2000/svg">
<rect width="40" height="40" fill="black"/>
<path d="M29.9463 18.1888C29.5953 13.1432 26.6554 10.7302 23.7155 9.58943C22.6185 9.15069 21.0827 8.93132 19.4592 9.01907C18.9326 9.06294 18.3622 9.10682 17.7917 9.23844C15.5539 9.67718 13.3599 10.9057 12.0435 13.231L11.9997 13.3187L12.0435 13.4065C12.0874 13.4942 12.1752 13.582 12.3068 13.6258C12.4384 13.7136 12.5701 13.8013 12.7017 13.8452C13.0089 14.0207 13.4477 14.1962 13.8426 14.3717C14.2814 14.5472 14.6763 14.7227 15.0273 14.8105C15.2029 14.8543 15.3345 14.8982 15.4661 14.9421C15.5978 14.9859 15.6416 14.9859 15.7733 14.9859H15.8172L15.861 14.9421C16.9141 13.4942 19.0642 12.529 21.7409 13.1432C23.8032 13.6258 24.8563 14.9421 25.339 16.3022C25.7778 17.5306 25.7778 18.803 25.6462 19.4611C23.0134 17.1797 20.1612 16.5654 17.7479 16.8725C15.2467 17.1797 13.2283 18.452 12.2629 19.9437C10.2445 23.0149 10.6394 26.5687 13.4916 29.1134C14.9835 30.4735 17.704 30.9561 20.4684 31C23.2328 31 26.0411 30.5174 27.7962 29.7277L27.8401 29.6838V29.6399C28.8494 27.3146 30.2974 22.3568 29.9463 18.1888ZM24.593 26.7003C24.4175 26.7881 24.0226 26.9197 23.5399 27.0075C23.0134 27.0952 22.3113 27.183 21.6092 27.2268C20.2051 27.3146 18.5816 27.2268 17.5285 26.832C16.2998 26.3932 15.6416 25.6474 15.3345 24.8576C15.0273 24.0679 15.1151 23.2343 15.4222 22.5762C15.9049 21.5671 16.8264 21.0406 17.8795 20.7773C18.406 20.6457 18.9326 20.6018 19.4153 20.6457C19.8979 20.6896 20.3367 20.7335 20.6439 20.8651C22.048 21.3916 23.1889 22.1813 23.891 23.1904C24.593 24.1995 24.8563 25.3841 24.593 26.7003Z" fill="white"/>
</svg>
