<svg width="40" height="40" viewBox="0 0 40 40" fill="none" xmlns="http://www.w3.org/2000/svg">
<rect width="40" height="40" fill="white"/>
<path d="M39.2403 7H19.5115C17.538 7.00094 15.6058 7.56495 13.9417 8.62581C12.2776 9.68667 10.9508 11.2003 10.1171 12.989L1 32.5226H20.7262C22.7014 32.5233 24.6357 31.9601 26.3017 30.8992C27.9677 29.8382 29.2962 28.3237 30.1309 26.5336L39.2403 7Z" fill="#00C853"/>
<path d="M22.6414 22.4882C22.358 22.4845 22.0776 22.5457 21.8216 22.6673C21.5656 22.7888 21.3409 22.9674 21.1647 23.1894C20.3608 24.2397 19.3413 24.8433 17.7438 24.7097C16.2235 24.7097 15.3657 23.6157 16.3468 21.52L18.5323 16.869C18.8506 16.1919 19.3557 15.6198 19.9881 15.2199C20.6204 14.82 21.3538 14.609 22.1021 14.6116H22.8134C24.0308 14.6116 24.886 15.7776 23.9897 17.6934L23.7508 18.1917H29.1055C29.4703 18.1918 29.8274 18.0873 30.1347 17.8907C30.4419 17.6941 30.6863 17.4135 30.839 17.0822L31.4246 15.8135C31.774 15.0556 31.9271 14.2219 31.8698 13.3893C31.8126 12.5566 31.5467 11.7518 31.0968 11.0489C30.6468 10.3459 30.0272 9.7675 29.2951 9.36684C28.5629 8.96618 27.7417 8.75617 26.9071 8.75615H23.8407C21.4106 8.75711 19.031 9.45041 16.9806 10.7549C14.9302 12.0593 13.294 13.9209 12.2633 16.1217L9.11988 22.8478C7.04222 27.3498 10.2037 30.4881 14.3205 30.4933L15.8177 30.5241C21.4677 30.6319 25.9774 27.6374 28.0679 23.0995L28.3504 22.4882H22.6414Z" fill="white"/>
</svg>
