<svg width="40" height="40" viewBox="0 0 40 40" fill="none" xmlns="http://www.w3.org/2000/svg">
<rect width="40" height="40" fill="black"/>
<path d="M12.1903 25.3231C13.2668 25.3231 14.9384 27.4124 18.6386 27.4124C21.0405 27.4124 22.6851 26.2077 22.6851 24.3084C22.6851 19.3973 11.2166 21.5191 11.2166 14.5134C11.2166 11.2466 13.9971 9 18.2329 9C21.9602 9 24.995 10.5846 24.995 12.1691C24.995 12.8366 24.519 13.3087 23.7941 13.3087C22.6256 13.3087 21.2678 11.6916 17.9192 11.6916C15.6741 11.6916 14.2244 12.7715 14.2244 14.3832C14.2244 18.8818 25.6334 16.8577 25.6334 24.0805C25.6334 27.662 22.8528 30.0714 18.3952 30.0714C14.4786 30.0714 11.0002 28.1992 11.0002 26.4573C10.9894 25.8278 11.46 25.3231 12.1903 25.3231Z" fill="white"/>
<path d="M30.0092 26.0507C31.1128 26.0507 32 26.9678 32 28.0477C32 29.1276 31.1128 29.9795 30.0092 29.9795C28.9652 29.9795 28.0834 29.1221 28.0834 28.0477C28.0834 26.9678 28.9706 26.0507 30.0092 26.0507Z" fill="#3FA9F5"/>
</svg>
