<svg width="40" height="40" viewBox="0 0 40 40" fill="none" xmlns="http://www.w3.org/2000/svg">
<rect width="40" height="40" fill="white"/>
<g clip-path="url(#clip0_1838_4971)">
<mask id="mask0_1838_4971" style="mask-type:luminance" maskUnits="userSpaceOnUse" x="3" y="3" width="34" height="34">
<path d="M37 3H3V37H37V3Z" fill="white"/>
</mask>
<g mask="url(#mask0_1838_4971)">
<path d="M37 20C37 16.6377 36.003 13.3509 34.135 10.5553C32.267 7.75968 29.612 5.58075 26.5056 4.29406C23.3993 3.00737 19.9811 2.67071 16.6835 3.32666C13.3858 3.98261 10.3567 5.6017 7.97919 7.97919C5.6017 10.3567 3.98261 13.3858 3.32666 16.6835C2.67071 19.9811 3.00737 23.3993 4.29406 26.5056C5.58075 29.612 7.75968 32.267 10.5553 34.135C13.3509 36.003 16.6377 37 20 37C24.5087 37 28.8327 35.2089 32.0208 32.0208C35.2089 28.8327 37 24.5087 37 20Z" fill="white"/>
<path d="M26.324 19.456C26.8793 19.3313 27.4573 19.218 28.0013 19.082C29.1347 18.7987 30.268 18.5493 31.4013 18.2773C33.192 17.858 34.994 17.4613 36.7847 17.0307C36.0879 13.0975 34.0284 9.53536 30.9674 6.96906C27.9065 4.40277 24.0397 2.99625 20.0453 2.99625C16.051 2.99625 12.1841 4.40277 9.12322 6.96906C6.06231 9.53536 4.0028 13.0975 3.306 17.0307L5.15333 17.4613C6.21867 17.688 7.284 17.9487 8.34933 18.1867L11.3073 18.8667C12.1573 19.0707 13.0073 19.2747 13.8687 19.456C13.9239 19.4616 13.9774 19.4782 14.0261 19.5046C14.0749 19.5311 14.1179 19.567 14.1527 19.6102C14.1875 19.6534 14.2133 19.7031 14.2288 19.7564C14.2442 19.8097 14.249 19.8655 14.2427 19.9207C14.2427 20.442 14.1407 20.952 14.1633 21.4733C14.1633 22.5047 14.05 23.5247 14.084 24.5673C14.0897 24.6125 14.0897 24.6582 14.084 24.7033C14.0818 24.8081 14.0415 24.9086 13.9705 24.9858C13.8996 25.063 13.8029 25.1116 13.6987 25.1227C12.8147 25.2927 11.942 25.5193 11.0693 25.6893C9.27867 26.0407 7.51067 26.4713 5.72 26.8227C5.414 26.8793 5.11933 26.97 4.81333 27.0267C4.72744 27.0434 4.64377 27.07 4.564 27.106C6.43174 31.1369 9.79847 34.2799 13.948 35.8667C13.9928 35.7227 14.0232 35.5746 14.0387 35.4247C14.0387 34.2347 14.2087 33.056 14.186 31.866C14.186 31.594 14.186 31.3107 14.186 31.0387C14.254 29.622 14.4013 28.2167 14.39 26.8C14.39 26.1993 14.39 26.188 14.9907 26.188H25.1C25.678 26.188 25.7347 26.2447 25.7687 26.8227C25.848 28.364 25.8593 29.9167 25.9727 31.458C26.0747 32.7953 26.0747 34.144 26.1427 35.4813C26.1377 35.6058 26.161 35.7298 26.2107 35.844C30.3102 34.2355 33.6256 31.0989 35.4587 27.0947C35.4212 27.0881 35.3828 27.0881 35.3453 27.0947L32.3987 26.4487C31.5033 26.2447 30.6193 26.052 29.724 25.8707L26.528 25.1907C26.2333 25.134 26.086 25.0093 26.086 24.692C26.086 23.978 26.086 23.2753 26.0293 22.5613C25.9727 21.8473 25.9273 20.8613 25.9273 20.0113C25.9273 19.6827 26.0293 19.5693 26.324 19.5013" fill="#139CD8"/>
<path d="M20 15.4667H14.3333C14.1973 15.4667 13.9593 15.58 13.9253 15.3307C13.8913 15.0813 13.812 14.8093 14.0953 14.628L17.212 12.5767L19.8413 10.8313C19.8974 10.7811 19.9701 10.7534 20.0453 10.7534C20.1206 10.7534 20.1932 10.7811 20.2493 10.8313L25.9953 14.628C26.2787 14.8093 26.2333 15.07 26.1993 15.3193C26.1653 15.5687 25.916 15.478 25.7573 15.478H20" fill="white"/>
<path d="M20.0567 18.6627H14.8887C14.356 18.6627 14.3673 18.6627 14.4127 18.13C14.4127 17.7673 14.4127 17.4047 14.4127 16.9967C14.4127 16.5887 14.5373 16.5887 14.832 16.5887H21.1333C22.5047 16.5887 23.876 16.5887 25.236 16.5887C25.5647 16.5887 25.6667 16.6907 25.6553 17.0193C25.644 17.348 25.6553 17.7673 25.6553 18.1527C25.6553 18.538 25.6553 18.6287 25.202 18.6287H20.0567" fill="white"/>
<path d="M21.734 31.3333C21.5955 30.9566 21.3321 30.6387 20.9878 30.4325C20.6434 30.2263 20.2388 30.1443 19.8413 30.2C19.4385 30.2659 19.0701 30.4667 18.7962 30.7693C18.5224 31.072 18.3594 31.4586 18.334 31.866C18.334 33.498 18.334 35.1413 18.334 36.7733C18.334 36.8413 18.334 36.9207 18.334 36.9773C18.7307 36.9773 19.1273 37.0453 19.5353 37.0453H20.4647C20.9155 37.0377 21.3656 37.0074 21.8133 36.9547C21.8317 36.8649 21.8317 36.7724 21.8133 36.6827V32.1493C21.8154 31.8807 21.7772 31.6133 21.7 31.356" fill="#139CD8"/>
<path d="M20.1927 3.41932L20.8273 5.34599H22.856C22.924 5.34599 22.958 5.43666 22.856 5.47066L21.2127 6.60399C21.2057 6.61605 21.202 6.62973 21.202 6.64366C21.202 6.65758 21.2057 6.67126 21.2127 6.68332L21.9153 8.66666C21.9259 8.68168 21.93 8.70028 21.9268 8.71834C21.9236 8.73641 21.9134 8.75247 21.8983 8.76299C21.8833 8.77351 21.8647 8.77763 21.8466 8.77444C21.8286 8.77125 21.8125 8.76102 21.802 8.74599L20.17 7.60132H20.0907L18.4473 8.79132C18.4308 8.80485 18.4096 8.81125 18.3883 8.80913C18.3671 8.807 18.3475 8.79652 18.334 8.77999C18.3205 8.76346 18.3141 8.74223 18.3162 8.72098C18.3183 8.69972 18.3288 8.68018 18.3453 8.66666L18.9687 6.73999C18.9756 6.72793 18.9793 6.71425 18.9793 6.70032C18.9793 6.6864 18.9756 6.67272 18.9687 6.66066L17.3253 5.52732V5.40266H19.3427C19.3533 5.4077 19.3649 5.41031 19.3767 5.41031C19.3884 5.41031 19.4 5.4077 19.4107 5.40266L20.034 3.47599C20.034 3.45795 20.0412 3.44066 20.0539 3.42791C20.0667 3.41515 20.084 3.40799 20.102 3.40799C20.12 3.40799 20.1373 3.41515 20.1501 3.42791C20.1628 3.44066 20.17 3.45795 20.17 3.47599" fill="white"/>
</g>
</g>
<defs>
<clipPath id="clip0_1838_4971">
<rect width="34" height="34" fill="white" transform="translate(3 3)"/>
</clipPath>
</defs>
</svg>
